<svg xmlns="http://www.w3.org/2000/svg" xml:space="preserve" viewBox="0 0 256 256">
  <path fill="#dbba78" d="M191.2 120.6c0 9-2.1 17.8-6.1 25.8-16 5.9-32.9 8.7-50 8.3-17.2.5-34.3-2.3-50.4-8.3-4.1-7.9-6.2-16.7-6.1-25.6v-1.6c.9-31.1 26.8-55.6 57.9-54.7 29.8.9 53.8 24.9 54.7 54.7v1.4z"/>
  <path fill="#dbba78" d="M23.8 148.6c0 22.1 49.7 40 111.1 40 61.4 0 111.1-17.9 111.1-40s-49.7-40-111.1-40c-61.4-.1-111.1 17.9-111.1 40z"/>
  <path fill="#c31d1f" d="M191.2 120.2v.5c0 9.2 0 22.7-10 27.4-13.6 6.6-31.6 6.7-46.2 6.7-14 .2-28-1.6-41.5-5.3-6.1-1.7-10.9-6.5-12.7-12.6-1.6-5.2-2.4-10.7-2.4-16.2v1.1c11.4 6.9 32.3 10 56.3 10 24.2 0 45.1-4.7 56.5-11.6z"/>
  <path fill="#040000" d="M85.8 155.9h-1.2c-8.7-2.4-15.4-9.3-17.7-18-1.3-5.1-2-10.4-2-15.7v-1.8c.5-17.9 9-34.7 23.1-45.8 1.6-2 4.5-2.2 6.5-.6s2.2 4.5.6 6.5c-.4.5-.9.9-1.5 1.2-11.9 9.4-19.1 23.7-19.4 38.9v1.1c0 4.7.5 9.3 1.7 13.9 1.5 5.6 5.8 9.9 11.3 11.5 2.4.7 3.9 3.2 3.2 5.7-.7 1.9-2.6 3.2-4.6 3.1zm40.1 5c-7 0-14-.4-21-1.2l-2.9-.4-1.8-.3-2.9-.5c-2.5-.4-4.3-2.8-3.9-5.4.4-2.5 2.8-4.3 5.4-3.9l2.7.4 1.7.2 2.7.4c6.6.8 13.3 1.2 19.9 1.2 9.3 0 18.6-.7 27.7-2.3l3.6-.6c5.1-.5 10.1-1.8 14.7-3.9 5.9-3.3 5.9-14.2 5.9-21.5v-2.7c-.1-5-1-10-2.5-14.7-.4-1-.7-2-1.1-3-.7-2.5.8-5 3.2-5.7 2.1-.6 4.3.4 5.3 2.3.5 1.2.9 2.4 1.3 3.6 1.8 5.6 2.8 11.4 3 17.3v3c0 9.2 0 23.5-10.5 29.5-5.7 2.8-11.9 4.5-18.3 5.1l-3.5.6c-9.5 1.7-19.1 2.5-28.7 2.5zm46.4-65.8c-1.5 0-2.9-.7-3.8-2-9.6-14.1-25.6-22.6-42.6-22.6-3.4 0-6.8.3-10.2 1-2.4.8-5-.6-5.8-3-.8-2.4.6-5 3-5.8.3-.1.6-.2 1-.2 24-4.8 48.6 5.2 62.3 25.4 1.4 2.1.9 4.9-1.2 6.4-.8.5-1.8.8-2.7.8zm-71.5-18.8c-2.6 0-4.6-2.1-4.6-4.6 0-1.7 1-3.3 2.5-4.1l3.1-1.4c2.3-1 5.1.1 6 2.4 1 2.3-.1 5-2.4 6-.9.4-1.7.8-2.6 1.2-.6.3-1.3.5-2 .5z"/>
  <path fill="#040000" d="M50 184c-.5.1-1 .1-1.4 0-24.9-8.3-38.6-20.3-38.6-33.7 0-16.7 22-31.3 58.8-39.1 2.5-.3 4.8 1.5 5.1 4 .3 2.2-1.1 4.3-3.2 5-31.3 6.6-51.5 18.5-51.5 30.1 0 8.9 12.1 18.2 32.3 25 2.4.9 3.6 3.5 2.8 5.9-.7 1.8-2.3 3-4.2 3v-.2zm13.7 4h-1.8c-2.6-.6-4.1-3.2-3.5-5.7.6-2.5 3.2-4.1 5.7-3.5h.7c2.4.6 4 3 3.4 5.5-.4 2.1-2.3 3.6-4.5 3.7zm62.2 6.7c-16.7.1-33.4-1.3-49.9-4.2-2.5-.3-4.3-2.7-3.9-5.2v-.2c.4-2.4 2.7-4.1 5.1-3.8 16.1 2.8 32.4 4.2 48.7 4.1 30 0 58.9-4.6 79.3-12.3 2.2-1.2 5-.4 6.3 1.8 1.2 2.2.4 5-1.8 6.3-.4.2-.8.4-1.2.4-22 8.6-51.3 13.1-82.6 13.1zm91.4-17.3c-1.7 0-3.3-.9-4.1-2.4-1.2-2.3-.3-5 1.9-6.2 11-5.7 17-12.3 17-18.5 0-11.7-20.2-23.5-51.5-30.1-2.4-.7-3.8-3.3-3.1-5.8.6-2.1 2.8-3.5 5-3.2 36.8 7.5 58.7 22.2 58.7 38.9 0 7-3.8 17.3-22 26.8-.5.3-1.2.5-1.9.5z"/>
  <path fill="#040000" d="M164.2 133.3c-2.6.3-4.9-1.5-5.2-4-.3-2.5 1.5-4.9 4-5.2 5.1-1.3 10-3.1 14.6-5.4.7-1.7 2.3-2.8 4.1-2.9 2.5 0 4.6 2.1 4.6 4.6v3.9l-2.2 1.3c-6 3.4-12.4 5.9-19 7.5-.2.2-.5.2-.9.2zm-38.3 4.6c-24.1 0-46.2-4.6-58.7-12.2l-2.2-1.3v-4c.2-2.5 2.5-4.4 5-4.2 1.6.1 3 1.1 3.7 2.5 11.5 6.1 31.1 9.8 52 9.8 6.3 0 12.7-.3 19-1l5-.6c2.5-.4 4.8 1.4 5.2 3.9.4 2.5-1.4 4.8-3.9 5.2l-5.3.7c-6.6.7-13.2 1.1-19.8 1.2z"/>
  <path fill="#fff" d="M92.2 101.8h-.8c-1.6-.5-2.6-2.1-2.2-3.7 2.6-7.1 7.8-13 14.6-16.3 1.5-.7 3.3-.1 4 1.4v.1c.7 1.5.1 3.4-1.4 4.1-5.2 2.6-9.2 7-11.3 12.4-.3 1.2-1.5 2-2.9 2zM86.7 106.5c0 1.6 1.3 3 3 3 1.6 0 3-1.3 3-3 0-1.6-1.3-3-3-3-1.7.1-3 1.4-3 3z"/>
  <path fill="#e8c589" d="M48 164.1h-.6c-7.3-2.2-13.4-7-17.1-13.6-.8-1.5-.1-3.4 1.4-4.1 1.4-.7 3.2-.2 4 1.1 2.8 5 7.5 8.8 13 10.6 1.7.4 2.7 2 2.4 3.6-.4 1.5-1.7 2.5-3.1 2.4z"/>
</svg>
